<?xml version="1.0" encoding="UTF-8" standalone="no"?>
<!DOCTYPE svg PUBLIC "-//W3C//DTD SVG 20010904//EN"
              "http://www.w3.org/TR/2001/REC-SVG-20010904/DTD/svg10.dtd">

<svg xmlns="http://www.w3.org/2000/svg"
     width="1in" height="0.5in"
     viewBox="0 0 300 150">
  <path
        fill="#ffe000" stroke="none"
        d="M 12.00,48.00
           C 12.00,50.09 11.79,54.99 12.60,56.72
             15.59,63.18 26.09,56.64 33.00,63.00
             30.84,63.18 23.05,63.87 21.80,65.02
             18.02,67.88 21.29,76.35 21.80,80.00
             21.80,80.00 21.80,86.00 21.80,86.00
             21.80,86.00 40.00,87.00 40.00,87.00
             39.93,88.88 40.06,91.04 38.98,92.69
             37.51,94.93 35.15,94.75 32.59,96.20
             28.33,98.61 26.87,102.22 27.34,107.00
             27.34,107.00 30.02,123.41 30.02,123.41
             31.82,125.75 40.01,127.95 43.00,128.00
             43.00,128.00 87.00,128.00 87.00,128.00
             88.08,121.56 91.16,121.80 97.00,122.04
             97.00,122.04 109.00,123.00 109.00,123.00
             109.00,123.00 128.00,123.00 128.00,123.00
             128.00,123.00 182.00,122.00 182.00,122.00
             194.58,121.97 188.42,119.03 201.00,119.00
             201.00,119.00 243.00,119.00 243.00,119.00
             243.00,119.00 258.00,118.00 258.00,118.00
             259.53,109.10 266.01,113.37 270.40,109.15
             272.61,107.03 272.30,100.85 272.00,98.00
             272.00,98.00 280.00,97.00 280.00,97.00
             280.00,94.10 280.26,88.55 279.26,86.02
             276.49,78.98 264.63,76.88 258.00,76.00
             265.15,69.19 276.40,73.03 274.85,62.04
             274.47,59.35 273.73,58.85 272.00,57.00
             281.68,53.77 281.00,54.28 281.00,44.00
             281.00,44.00 258.00,42.38 258.00,42.38
             250.00,40.84 251.48,38.03 235.00,38.00
             235.00,38.00 189.00,39.00 189.00,39.00
             189.00,39.00 177.00,39.82 177.00,39.82
             177.00,39.82 159.00,38.00 159.00,38.00
             159.00,38.00 128.00,38.00 128.00,38.00
             116.90,38.02 120.16,39.40 113.00,40.67
             113.00,40.67 97.00,42.17 97.00,42.17
             97.00,42.17 87.00,43.83 87.00,43.83
             87.00,43.83 57.00,45.00 57.00,45.00
             57.00,45.00 32.00,48.00 32.00,48.00
             32.00,48.00 12.00,48.00 12.00,48.00 Z" />
</svg>
